PathFileType	4	(X/Y/Z)	intermediate\S1_nor_med_left\tmpk2z6hi7d.trc
DataRate	CameraRate	NumFrames	NumMarkers	Units	OrigDataRate	OrigDataStartFrame	OrigNumFrames
250.0	250.0	19	18	mm	250.0	1	7677
Frame#	Time	c7			r_should			l_should			clavicle			r_upa			r_elb_l			r_elb_m			r_low			r_wri_l			r_wri_m			r_met			l_upa			l_elb_l			l_elb_m			l_low			l_wri_l			l_wri_m			l_met			
		X	Y	Z	X	Y	Z	X	Y	Z	X	Y	Z	X	Y	Z	X	Y	Z	X	Y	Z	X	Y	Z	X	Y	Z	X	Y	Z	X	Y	Z	X	Y	Z	X	Y	Z	X	Y	Z	X	Y	Z	X	Y	Z	X	Y	Z	X	Y	Z	
1	0.000000	904.621460	1420.708130	115.929649	993.999878	1351.836426	284.707520	939.150452	1358.969360	-83.834167	1037.792236	1296.151367	85.798752	990.288208	1139.775513	330.890045	1010.850098	1037.939087	331.247223	925.535278	1021.977661	272.721283	968.924866	907.444946	348.331512	1048.229248	820.833008	308.587311	978.355530	802.917969	327.729248	1083.005859	741.916626	324.354370	939.151855	1135.990112	-125.496490	948.723267	1052.100342	-140.500076	893.262573	1023.216736	-56.022411	916.442993	905.296875	-145.712936	999.119263	822.786743	-131.660156	929.808838	803.308533	-143.513229	1024.536133	751.721680	-151.680847	
2	0.004000	904.509094	1420.737793	115.852684	993.946533	1351.893433	284.634735	938.900940	1358.925171	-83.894180	1037.653564	1296.148560	85.694160	990.233765	1139.842773	330.850769	1010.779968	1037.985352	331.148315	925.350525	1022.070557	272.805756	968.812195	907.503418	348.329010	1047.999268	820.856995	308.383942	978.186157	802.974792	327.737793	1082.767700	741.884155	323.871490	938.867554	1136.002563	-125.704941	948.429321	1052.157104	-140.784943	893.100708	1023.152344	-56.206608	916.529114	905.296509	-145.954880	999.467102	823.029175	-132.235718	930.179504	803.367554	-143.786850	1025.022095	752.029297	-152.294815	
3	0.008000	904.403564	1420.763062	115.779938	993.895203	1351.952148	284.560394	938.654114	1358.877808	-83.948776	1037.517334	1296.152344	85.580635	990.197632	1139.901733	330.811005	1010.699036	1038.033447	331.086853	925.163818	1022.156250	272.888428	968.687927	907.560242	348.316559	1047.768677	820.880066	308.175995	978.008606	803.037415	327.734009	1082.482056	741.807922	323.226440	938.580872	1136.007690	-125.898926	948.131775	1052.207642	-141.074142	892.938660	1023.095032	-56.405373	916.611511	905.284424	-146.200531	999.831909	823.255981	-132.838257	930.311218	803.541077	-143.618805	1025.504883	752.356384	-152.952927	
4	0.012000	904.300659	1420.788818	115.698486	993.849304	1352.007568	284.470245	938.413879	1358.822876	-84.008064	1037.385742	1296.150879	85.479980	990.164307	1139.965576	330.776611	1010.611755	1038.076416	331.016083	924.966492	1022.236816	272.980042	968.555603	907.617615	348.299591	1047.542480	820.902649	307.961365	977.824951	803.097717	327.716980	1082.236328	741.786865	322.759247	938.297729	1136.002808	-126.091156	947.828064	1052.262817	-141.361389	892.773315	1023.040283	-56.599064	916.683228	905.270142	-146.441284	1000.215271	823.437683	-133.464722	930.143738	803.850586	-142.882706	1025.995361	752.682922	-153.613159	
5	0.016000	904.196716	1420.824707	115.622154	993.796448	1352.057861	284.372772	938.173523	1358.766479	-84.066628	1037.244873	1296.147095	85.375710	990.122559	1140.030762	330.740173	1010.522583	1038.125244	330.955750	924.782654	1022.314453	273.067780	968.415405	907.675110	348.285919	1047.315674	820.928223	307.741119	977.634827	803.155762	327.699432	1081.995483	741.781372	322.345428	937.996277	1136.003662	-126.292854	947.502014	1052.314819	-141.657059	892.606689	1022.978882	-56.780617	916.748474	905.256897	-146.689682	1000.559692	823.671082	-134.072205	930.345703	803.940552	-142.817474	1026.473511	752.997498	-154.260742	
6	0.020000	904.100464	1420.861938	115.559486	993.745789	1352.116333	284.289032	937.930847	1358.711182	-84.120613	1037.104858	1296.140625	85.276329	990.073608	1140.100220	330.707733	1010.429871	1038.168213	330.899384	924.587585	1022.397034	273.155945	968.264709	907.735474	348.267731	1047.082153	820.961670	307.520905	977.436890	803.214539	327.684509	1081.759033	741.785767	321.941803	937.673706	1136.001709	-126.494316	947.161011	1052.360596	-141.954514	892.449097	1022.914917	-56.946106	916.805786	905.249207	-146.938004	1000.877625	823.921570	-134.692841	930.626709	803.982605	-142.922791	1026.931274	753.333313	-154.947433	
7	0.024000	904.008240	1420.890869	115.501869	993.696960	1352.178589	284.204956	937.681946	1358.658813	-84.168701	1036.963501	1296.127319	85.169678	990.030151	1140.167725	330.687683	1010.339966	1038.207886	330.844452	924.393066	1022.491211	273.239716	968.117981	907.799561	348.251373	1046.831177	820.997620	307.296509	977.236023	803.275085	327.675873	1081.520996	741.798706	321.538635	937.340332	1136.013550	-126.705406	946.815796	1052.406006	-142.234161	892.295959	1022.853882	-57.108074	916.860962	905.238831	-147.170624	1001.322876	824.215393	-135.549469	930.925476	804.007996	-143.057877	1027.379517	753.666260	-155.665787	
8	0.028000	903.915649	1420.915894	115.437325	993.646606	1352.240845	284.125885	937.430847	1358.614746	-84.223763	1036.818726	1296.119873	85.059929	989.990234	1140.224854	330.657196	1010.243652	1038.250244	330.784241	924.215149	1022.575745	273.310150	967.968994	907.862427	348.237030	1046.571899	821.027405	307.071655	977.047241	803.336975	327.664001	1081.277954	741.805298	321.121094	936.995850	1136.017212	-126.917854	946.465515	1052.449463	-142.512161	892.148621	1022.787476	-57.270390	916.906982	905.224792	-147.393173	1001.914001	824.549500	-136.645996	931.238586	804.021851	-143.201294	1027.839600	753.990173	-156.379135	
9	0.032000	903.827148	1420.943359	115.386345	993.598083	1352.305786	284.039673	937.176025	1358.563843	-84.280937	1036.684692	1296.122192	84.961510	989.938232	1140.278564	330.626495	1010.146362	1038.297363	330.723969	924.051270	1022.640259	273.363708	967.817139	907.928040	348.216858	1046.312622	821.054443	306.844360	976.857422	803.394592	327.649170	1081.027466	741.802368	320.689911	936.649414	1136.011719	-127.126915	946.116150	1052.486084	-142.792221	892.007935	1022.709473	-57.426743	916.946533	905.209595	-147.608337	1002.254822	824.814819	-137.365967	931.565186	804.030396	-143.339401	1028.286987	754.322327	-157.105515	
10	0.036000	903.742615	1420.972778	115.333466	993.562317	1352.372192	283.948730	936.926941	1358.505005	-84.337891	1036.554565	1296.114868	84.875595	989.878601	1140.347534	330.607483	1010.046265	1038.342529	330.668457	923.885925	1022.718689	273.413300	967.665955	908.000000	348.198395	1046.057373	821.084961	306.619873	976.669495	803.454651	327.638916	1080.775879	741.800903	320.255096	936.297424	1136.002808	-127.322464	945.765320	1052.529419	-143.068878	891.862610	1022.626892	-57.563946	916.978577	905.195068	-147.809082	1002.533081	825.068420	-138.002106	931.887878	804.045776	-143.472488	1028.708252	754.657593	-157.835693	
11	0.040000	903.653931	1420.998291	115.271820	993.529419	1352.443726	283.864136	936.681030	1358.451904	-84.398865	1036.418457	1296.105347	84.784401	989.831970	1140.413452	330.588745	1009.939575	1038.391479	330.597900	923.717957	1022.801147	273.469727	967.512817	908.068054	348.182037	1045.805664	821.122925	306.391449	976.474976	803.518921	327.621765	1080.520386	741.819519	319.832275	935.948486	1135.991699	-127.510147	945.413330	1052.579224	-143.334305	891.732483	1022.534119	-57.692471	917.008423	905.173645	-147.993774	1002.834534	825.342957	-138.667816	932.199280	804.057373	-143.605118	1029.139893	754.999512	-158.577347	
12	0.044000	903.561157	1421.028564	115.186378	993.496216	1352.518311	283.783539	936.436035	1358.402954	-84.461929	1036.278931	1296.103882	84.682091	989.790588	1140.473755	330.554413	1009.842041	1038.445435	330.535919	923.548157	1022.885559	273.529419	967.360962	908.138306	348.155853	1045.550415	821.165344	306.144196	976.268677	803.587646	327.596710	1080.251343	741.838379	319.424622	935.616394	1135.981201	-127.675903	945.067505	1052.630127	-143.562927	891.630066	1022.442444	-57.808830	917.037781	905.147217	-148.163712	1003.103882	825.589111	-139.320053	932.508789	804.079590	-143.728973	1029.571899	755.345886	-159.333298	
13	0.048000	903.471680	1421.065308	115.124786	993.464966	1352.591553	283.695740	936.184753	1358.343384	-84.518555	1036.142700	1296.106079	84.572670	989.752869	1140.535522	330.520416	1009.744751	1038.500732	330.467865	923.359375	1022.982971	273.581421	967.205383	908.207275	348.122162	1045.285522	821.205017	305.892456	976.056885	803.653870	327.564301	1079.965332	741.843445	319.005432	935.281067	1135.968506	-127.839043	944.727844	1052.683105	-143.775162	891.536011	1022.350403	-57.918453	917.067627	905.120361	-148.325394	1003.361450	825.838928	-139.952332	932.814270	804.101746	-143.841507	1029.987305	755.703735	-160.083603	
14	0.052000	903.375488	1421.096802	115.063667	993.438965	1352.658813	283.604523	935.928284	1358.279175	-84.582939	1036.012207	1296.106079	84.465424	989.712708	1140.588989	330.469360	1009.641418	1038.557861	330.398743	923.160034	1023.073914	273.639771	967.042603	908.277588	348.082642	1045.013916	821.241272	305.654724	975.847290	803.723694	327.527405	1079.685059	741.843201	318.583008	934.936523	1135.955566	-128.004333	944.386414	1052.725098	-143.993408	891.444824	1022.253662	-58.012028	917.101379	905.085327	-148.480301	1003.639465	826.114624	-140.586014	933.111877	804.114685	-143.933762	1030.405396	756.078430	-160.845276	
15	0.056000	903.281189	1421.128052	114.984947	993.410461	1352.721680	283.517487	935.666992	1358.222656	-84.655067	1035.876099	1296.101685	84.354141	989.671631	1140.646606	330.426514	1009.534973	1038.607544	330.333862	922.978149	1023.170227	273.679901	966.869934	908.344055	348.031982	1044.743652	821.273682	305.421661	975.638489	803.788086	327.481689	1079.408203	741.843994	318.149689	934.594299	1135.944214	-128.164368	944.032043	1052.763306	-144.239685	891.861084	1022.093079	-58.195911	917.131042	905.048462	-148.627625	1003.914612	826.390015	-141.222198	933.408264	804.123962	-144.011124	1030.828003	756.431580	-161.607590	
16	0.060000	903.187561	1421.170166	114.906410	993.392456	1352.787964	283.437836	935.398254	1358.166992	-84.723907	1035.738525	1296.096924	84.239380	989.628174	1140.709595	330.383209	1009.420654	1038.649170	330.265533	922.799377	1023.278381	273.714325	966.691101	908.416931	347.981689	1044.476929	821.305725	305.183075	975.429626	803.847351	327.433136	1079.147095	741.848083	317.710449	934.264343	1135.933960	-128.320908	943.661560	1052.799072	-144.491913	892.915955	1021.853943	-58.491871	917.154724	905.018250	-148.769867	1004.167542	826.636902	-141.853836	933.711304	804.140930	-144.076508	1031.217285	756.782166	-162.397568	
17	0.064000	903.094849	1421.197510	114.850891	993.368286	1352.860840	283.348083	935.134399	1358.113403	-84.797310	1035.607300	1296.091309	84.131050	989.585327	1140.766846	330.328522	1009.310486	1038.697876	330.211609	922.617371	1023.405884	273.759460	966.514709	908.491760	347.927246	1044.219238	821.335327	304.931702	975.218628	803.908630	327.382263	1078.881104	741.856140	317.269318	933.936707	1135.916992	-128.466034	943.291077	1052.821777	-144.728394	893.162109	1021.722900	-58.619610	917.175293	904.987244	-148.903839	1004.410400	826.878174	-142.499329	934.014832	804.163635	-144.119629	1031.593750	757.124512	-163.205566	
18	0.068000	902.996704	1421.226685	114.784714	993.341919	1352.932617	283.261597	934.873535	1358.056274	-84.865944	1035.475952	1296.090210	84.019920	989.556641	1140.826782	330.276855	1009.201050	1038.742432	330.150848	922.432434	1023.523071	273.794067	966.338928	908.564575	347.865692	1043.952881	821.362122	304.666565	975.001343	803.976868	327.317200	1078.609985	741.873596	316.836182	933.601257	1135.894043	-128.608383	942.926636	1052.845947	-144.961197	893.214050	1021.618835	-58.704998	917.196899	904.950195	-149.031631	1004.651062	827.129639	-143.157242	934.314270	804.184814	-144.144196	1031.978882	757.484070	-164.007599	
19	0.072000	902.905518	1421.266602	114.703506	993.319519	1353.007812	283.176514	934.615967	1357.993774	-84.933388	1035.346924	1296.090088	83.907700	989.525330	1140.885864	330.222565	1009.093506	1038.789307	330.074310	922.252930	1023.635132	273.798645	966.166260	908.632263	347.795959	1043.667358	821.394775	304.393829	974.779053	804.052979	327.240051	1078.326416	741.884644	316.404816	933.270813	1135.868408	-128.751129	942.575623	1052.865723	-145.182190	893.229858	1021.528870	-58.777542	917.214966	904.912292	-149.146866	1004.889832	827.377502	-143.793869	934.603821	804.206360	-144.159042	1032.356323	757.771973	-164.850800	
